<svg width="20" height="20" viewBox="0 0 20 20" fill="none" xmlns="http://www.w3.org/2000/svg">
<rect width="20" height="20" rx="10" fill="white"/>
<path d="M10 11.0646L6.27376 14.7909C6.13435 14.9303 5.95691 15 5.74144 15C5.52598 15 5.34854 14.9303 5.20913 14.7909C5.06971 14.6515 5 14.474 5 14.2586C5 14.0431 5.06971 13.8657 5.20913 13.7262L8.93536 10L5.20913 6.27376C5.06971 6.13435 5 5.95691 5 5.74144C5 5.52598 5.06971 5.34854 5.20913 5.20913C5.34854 5.06971 5.52598 5 5.74144 5C5.95691 5 6.13435 5.06971 6.27376 5.20913L10 8.93536L13.7262 5.20913C13.8657 5.06971 14.0431 5 14.2586 5C14.474 5 14.6515 5.06971 14.7909 5.20913C14.9303 5.34854 15 5.52598 15 5.74144C15 5.95691 14.9303 6.13435 14.7909 6.27376L11.0646 10L14.7909 13.7262C14.9303 13.8657 15 14.0431 15 14.2586C15 14.474 14.9303 14.6515 14.7909 14.7909C14.6515 14.9303 14.474 15 14.2586 15C14.0431 15 13.8657 14.9303 13.7262 14.7909L10 11.0646Z" fill="black"/>
</svg>
