<svg width="24" height="24" viewBox="0 0 24 24" fill="none" xmlns="http://www.w3.org/2000/svg">
<path d="M10.7996 12.0008L14.6996 8.10078C14.8829 7.91745 14.9746 7.68411 14.9746 7.40078C14.9746 7.11745 14.8829 6.88411 14.6996 6.70078C14.5163 6.51745 14.2829 6.42578 13.9996 6.42578C13.7163 6.42578 13.4829 6.51745 13.2996 6.70078L8.69961 11.3008C8.59961 11.4008 8.52878 11.5091 8.48711 11.6258C8.44544 11.7424 8.42461 11.8674 8.42461 12.0008C8.42461 12.1341 8.44544 12.2591 8.48711 12.3758C8.52878 12.4924 8.59961 12.6008 8.69961 12.7008L13.2996 17.3008C13.4829 17.4841 13.7163 17.5758 13.9996 17.5758C14.2829 17.5758 14.5163 17.4841 14.6996 17.3008C14.8829 17.1174 14.9746 16.8841 14.9746 16.6008C14.9746 16.3174 14.8829 16.0841 14.6996 15.9008L10.7996 12.0008Z" fill="#C7C7C7"/>
</svg>
